<svg width="25" height="24" viewBox="0 0 25 24" fill="none" xmlns="http://www.w3.org/2000/svg">
<path d="M6.68001 22.7499C6.58001 22.7499 6.47002 22.7399 6.38001 22.7299L4.21001 22.4299C3.17001 22.2899 2.23001 21.3599 2.07001 20.2999L1.77001 18.1099C1.67001 17.4099 1.97001 16.4999 2.47001 15.9899L6.86001 11.5999C6.15001 8.75992 6.97002 5.75992 9.06002 3.68992C12.3 0.459923 17.57 0.449923 20.82 3.68992C22.39 5.25992 23.25 7.34992 23.25 9.56992C23.25 11.7899 22.39 13.8799 20.82 15.4499C18.72 17.5299 15.73 18.3499 12.91 17.6299L8.51002 22.0199C8.09001 22.4599 7.34001 22.7499 6.68001 22.7499ZM14.93 2.75992C13.18 2.75992 11.44 3.41992 10.11 4.74992C8.31001 6.53992 7.66001 9.15992 8.41001 11.5999C8.49001 11.8699 8.42001 12.1499 8.22001 12.3499L3.52001 17.0499C3.35001 17.2199 3.21001 17.6599 3.24001 17.8899L3.54001 20.0799C3.60001 20.4599 4.01002 20.8899 4.39001 20.9399L6.57001 21.2399C6.81001 21.2799 7.25001 21.1399 7.42001 20.9699L12.14 16.2599C12.34 16.0599 12.63 15.9999 12.89 16.0799C15.3 16.8399 17.93 16.1899 19.73 14.3899C21.01 13.1099 21.72 11.3899 21.72 9.56992C21.72 7.73992 21.01 6.02992 19.73 4.74992C18.43 3.42992 16.68 2.75992 14.93 2.75992Z" fill="white"/>
<path d="M9.68996 20.5397C9.49996 20.5397 9.30996 20.4697 9.15996 20.3197L6.85996 18.0197C6.56996 17.7297 6.56996 17.2497 6.85996 16.9597C7.14996 16.6697 7.62996 16.6697 7.91996 16.9597L10.22 19.2597C10.51 19.5497 10.51 20.0297 10.22 20.3197C10.07 20.4697 9.87996 20.5397 9.68996 20.5397Z" fill="white"/>
<path d="M15 11.75C13.76 11.75 12.75 10.74 12.75 9.5C12.75 8.26 13.76 7.25 15 7.25C16.24 7.25 17.25 8.26 17.25 9.5C17.25 10.74 16.24 11.75 15 11.75ZM15 8.75C14.59 8.75 14.25 9.09 14.25 9.5C14.25 9.91 14.59 10.25 15 10.25C15.41 10.25 15.75 9.91 15.75 9.5C15.75 9.09 15.41 8.75 15 8.75Z" fill="white"/>
</svg>
