<svg width="25" height="24" viewBox="0 0 25 24" fill="none" xmlns="http://www.w3.org/2000/svg">
<path d="M17.5 20.75H7.5C3.09 20.75 1.75 19.41 1.75 15V14.5C1.75 14.09 2.09 13.75 2.5 13.75C3.46 13.75 4.25 12.96 4.25 12C4.25 11.04 3.46 10.25 2.5 10.25C2.09 10.25 1.75 9.91 1.75 9.5V9C1.75 4.59 3.09 3.25 7.5 3.25H17.5C21.91 3.25 23.25 4.59 23.25 9V10C23.25 10.41 22.91 10.75 22.5 10.75C21.54 10.75 20.75 11.54 20.75 12.5C20.75 13.46 21.54 14.25 22.5 14.25C22.91 14.25 23.25 14.59 23.25 15C23.25 19.41 21.91 20.75 17.5 20.75ZM3.25 15.16C3.27 18.6 3.98 19.25 7.5 19.25H17.5C20.84 19.25 21.65 18.66 21.74 15.66C20.31 15.32 19.25 14.03 19.25 12.5C19.25 10.97 20.32 9.68 21.75 9.34V9C21.75 5.43 21.08 4.75 17.5 4.75H7.5C3.98 4.75 3.27 5.4 3.25 8.84C4.68 9.18 5.75 10.47 5.75 12C5.75 13.53 4.68 14.82 3.25 15.16Z" fill="white"/>
<path d="M10.5 7.25C10.09 7.25 9.75 6.91 9.75 6.5V4C9.75 3.59 10.09 3.25 10.5 3.25C10.91 3.25 11.25 3.59 11.25 4V6.5C11.25 6.91 10.91 7.25 10.5 7.25Z" fill="white"/>
<path d="M10.5 14.5802C10.09 14.5802 9.75 14.2402 9.75 13.8302V10.1602C9.75 9.75016 10.09 9.41016 10.5 9.41016C10.91 9.41016 11.25 9.75016 11.25 10.1602V13.8302C11.25 14.2502 10.91 14.5802 10.5 14.5802Z" fill="white"/>
<path d="M10.5 20.75C10.09 20.75 9.75 20.41 9.75 20V17.5C9.75 17.09 10.09 16.75 10.5 16.75C10.91 16.75 11.25 17.09 11.25 17.5V20C11.25 20.41 10.91 20.75 10.5 20.75Z" fill="white"/>
</svg>
